M48
;DRILL file {KiCad 5.0.2-bee76a0~70~ubuntu18.04.1} date dom 09 dic 2018 23:27:01 CET
;FORMAT={-:-/ absolute / inch / decimal}
FMAT,2
INCH,TZ
T1C0.0130
T2C0.0236
T3C0.0315
T4C0.0354
T5C0.0394
T6C0.0402
%
G90
G05
T1
X5.97Y-3.86
X6.05Y-3.74
X6.38Y-3.63
X6.44Y-3.57
X6.56Y-3.48
X6.9Y-3.61
X6.97Y-3.84
T2
X6.95Y-3.95
X7.0091Y-3.95
T3
X6.1116Y-3.91
X6.21Y-3.91
T4
X5.7131Y-3.92
X5.7131Y-4.0499
X5.8116Y-3.92
X5.8116Y-4.0499
X5.91Y-3.92
X5.91Y-4.0499
T5
X5.66Y-4.24
X5.66Y-4.34
X5.66Y-4.44
X5.76Y-4.24
X5.76Y-4.34
X5.76Y-4.44
X6.59Y-3.85
X6.59Y-3.95
X6.59Y-4.05
X6.69Y-3.85
X6.69Y-3.95
X6.69Y-4.05
X7.41Y-4.23
X7.41Y-4.33
X7.41Y-4.43
X7.51Y-4.23
X7.51Y-4.33
X7.51Y-4.43
T6
X5.7698Y-3.5501G85X5.7698Y-3.6099
G05
X5.8301Y-3.78G85X5.8899Y-3.78
G05
X6.01Y-3.5501G85X6.01Y-3.6099
G05
T0
M30
